/* XPM */
static char *_66867ce275b4783f511a26445d08b77sbyVGSc0Uq2tPRzT[] = {
/* columns rows colors chars-per-pixel */
"32 32 220 2 ",
"   c None",
".  c #000000",
"X  c #000009",
"o  c #090602",
"O  c #160A00",
"+  c #1A0C00",
"@  c #1A0300",
"#  c #1D1201",
"$  c #1B1509",
"%  c #161204",
"&  c #00001A",
"*  c #151616",
"=  c #230A00",
"-  c #231100",
";  c #291C04",
":  c #261D08",
">  c #341C00",
",  c #261B14",
"<  c #2B230B",
"1  c #372807",
"2  c #352A16",
"3  c #3D3114",
"4  c #2C2118",
"5  c #00022B",
"6  c #000021",
"7  c #00142F",
"8  c #000E35",
"9  c #001D37",
"0  c #112531",
"q  c #31302F",
"w  c #36393D",
"e  c #282B2F",
"r  c #452D02",
"t  c #4C2F01",
"y  c #442700",
"u  c #4C3202",
"i  c #44320C",
"p  c #4D3A0A",
"a  c #563B01",
"s  c #593B03",
"d  c #523706",
"f  c #443514",
"g  c #493A1A",
"h  c #533D14",
"j  c #683C01",
"k  c #4E3B2C",
"l  c #5B4400",
"z  c #5E430D",
"x  c #4F401B",
"c  c #544115",
"v  c #54431B",
"b  c #5B461A",
"n  c #5D4917",
"m  c #634504",
"M  c #644904",
"N  c #62470F",
"B  c #6B4B0B",
"V  c #6A4704",
"C  c #7A4F02",
"Z  c #754D04",
"A  c #725100",
"S  c #7B550C",
"D  c #795407",
"F  c #624A14",
"G  c #6C4E11",
"H  c #654D1B",
"J  c #654613",
"K  c #714D11",
"L  c #6D531B",
"P  c #7C5B15",
"I  c #73561B",
"U  c #75591C",
"Y  c #7C5C1C",
"T  c #785813",
"R  c #6D5108",
"E  c #7E631C",
"W  c #584825",
"Q  c #4F4035",
"!  c #695625",
"~  c #6B5628",
"^  c #745A21",
"/  c #7B5F23",
"(  c #745D2A",
")  c #775A28",
"_  c #65543A",
"`  c #765C37",
"'  c #644B2E",
"]  c #7C6023",
"[  c #7C642B",
"{  c #76612B",
"}  c #7D6832",
"|  c #776433",
" . c #002B4A",
".. c #394756",
"X. c #5F5347",
"o. c #555757",
"O. c #48555E",
"+. c #695A47",
"@. c #715D42",
"#. c #675A50",
"$. c #72634B",
"%. c #7C6A48",
"&. c #65605D",
"*. c #786B59",
"=. c #4D5B65",
"-. c #766D64",
";. c #7E7568",
":. c #676564",
">. c #845A02",
",. c #8C5C03",
"<. c #895C09",
"1. c #805609",
"2. c #875F13",
"3. c #815F1F",
"4. c #895F10",
"5. c #896300",
"6. c #86610C",
"7. c #916102",
"8. c #986C0C",
"9. c #936909",
"0. c #83621D",
"q. c #8A651C",
"w. c #886618",
"e. c #966B19",
"r. c #9E7219",
"t. c #A06B04",
"y. c #AB7608",
"u. c #B67B09",
"i. c #A4761B",
"p. c #AE7D1D",
"a. c #B47E19",
"s. c #855E2B",
"d. c #846423",
"f. c #8D6B24",
"g. c #82662B",
"h. c #84692B",
"j. c #8A6B2C",
"k. c #876625",
"l. c #926E23",
"z. c #9C6E29",
"x. c #8D702C",
"c. c #9E7A2C",
"v. c #97732A",
"b. c #836B34",
"n. c #8B6C33",
"m. c #82643C",
"M. c #816E38",
"N. c #8B7134",
"B. c #8C753A",
"V. c #8A753B",
"C. c #9A7C35",
"Z. c #947C3C",
"A. c #9A7C3C",
"S. c #937635",
"D. c #A37A23",
"F. c #B47E26",
"G. c #A07E35",
"H. c #846842",
"J. c #8B714C",
"K. c #836E54",
"L. c #987C58",
"P. c #917B4E",
"I. c #A37E4C",
"U. c #8A7964",
"Y. c #947B63",
"T. c #BF8200",
"R. c #B68715",
"E. c #9D803C",
"W. c #AC8127",
"Q. c #B7892C",
"!. c #AA8431",
"~. c #AB843C",
"^. c #A8863A",
"/. c #B38D37",
"(. c #BC943B",
"). c #C58301",
"_. c #CC8807",
"`. c #D18D04",
"'. c #C48A1C",
"]. c #C98C17",
"[. c #D19C15",
"{. c #C9952D",
"}. c #D09E26",
"|. c #CC892C",
" X c #D8A53B",
".X c #9C8342",
"XX c #9A845C",
"oX c #A48A45",
"OX c #A98C44",
"+X c #BB9643",
"@X c #B2964C",
"#X c #BB9B4C",
"$X c #B29347",
"%X c #A3835A",
"&X c #AF9254",
"*X c #B99B58",
"=X c #988465",
"-X c #8D8172",
";X c #A68A66",
":X c #B59866",
">X c #C79A47",
",X c #C7A34B",
"<X c #D9AD49",
"1X c #DEB14D",
"2X c #C7A856",
"3X c #D2AE54",
"4X c #D5B45C",
"5X c #E2AF44",
"6X c #E8B64A",
"7X c #E3B040",
"8X c #E5B953",
"9X c #E5BA58",
"0X c #D1AC72",
"qX c #D2B265",
"wX c #EDCA66",
"eX c #FBCF66",
"rX c #EDD079",
"tX c #FFDC72",
"yX c #FFE176",
"uX c #C7A986",
/* pixels */
"                                                                ",
"                      6X}.R.W.r.i.y.a.].                        ",
"                  8X*X5.-X;.u W 2 +.h l k.G.).                  ",
"              eX,XF  .*.XXJ.] { h ( ^ ^ % . Z y.                ",
"            wXA.. . . $.-XoXh.$Xh.OX^ x.o . . . z.|.            ",
"          rX%.. w n h./.S.=X.Xe./ d.l.v.l.k.. . 9 s.).          ",
"        wX| ..o.b /.C.| g.I =X;XI T U G q.w.r.h o o <._.        ",
"      eXZ.. . J.:X} | N.N.x l $.-.) d.d.T ) n.>.J . X y.        ",
"      ,X. X 6.C.*X*X*XoX{ v g = k Q N U 0./ Y.I.7.q * - u.      ",
"    8Xb . u C.Z.V..XB.W o . . g 1 . . ; H T f.%XK.z.* . >.`.    ",
"    (.6 e r.B.} .X} f . 1 ^.+X2X2X$Xf.. . h f.8.%.Y.k o 4 F.    ",
"  6Xd.5 ' j.b.N.V.v . F Q.x.v 3 3 ! !.W.; . ^ v.Z m.;Xe O.uX    ",
"   Xi . <.x.} S.! . u F.p . . . . . . P i.o + U d.A 3.;...s.].  ",
"  Q.. > d.g.h.h.f . 8.m . . g #X.X# . . 6.S . F k.L f.G.8 a {.  ",
"  W.. t e.] h.( X u 7.O s Y ^.4X2Xc.G r r 7.. f d.I I I a G '.  ",
"  D.. d d./ h.^ . V C . B I . .X| @ U s o ,.> < / ^ I U D.Y {.  ",
"  D.9 j q.^ L L o V Z . O < . oXM.. o O . >.1 : ^ H H / Q.n.>X  ",
"  i.8 k >./ H L . s C . d.^.r .Xb.I ^.z . ,.- i S.>X+Xd.!.d.{.  ",
"  F.X X.L.R P ] < + <.O < v . oXb.. v . d S . v A.8X1Xd.^ l. X  ",
"  T.-.o.H.Y.) <.b . B S . o . .X} . . . 6.u . ~ n.Z.n.g.^ Q.7X  ",
"  ).=X=.j m.Y.J.9.% . T I . c 3X@XO : 0.N . v E.} v OXb $ (.    ",
"    t.o * 7.Y Y.%XM . . M F v.#X$X6.L c . f Z.P.2 ! C.. i <X    ",
"    '.N . K S >.L.Y.I # 9 , u W b u . . g B.V.OXE.e.. 5 $X      ",
"      y.X . 8.q.5.m.j.D +.:.e . X X 3 ~ $X@X@X@XA.z . _ 9X      ",
"      _.7.7 4 2.l.V T d.6._ -.+.l { x.P.XXx.E.A.1.. . 3X        ",
"        ).` & s Y l.P B Y R k.:X*.E k.g.P.=X^.M X . 2XtX        ",
"          u.Z . . l.0.c.P T l.8.J.U.n.j.c.Z.&.w . 2XyX          ",
"            ).e.e . 2 j.[ OXg.OXf.&X=XoX1 + . X.qXyX            ",
"                F.S . p H.` ! V.l P W $.X < /.9X                ",
"                  [.a.r.e.0.{ B #.@.6.E./.<X                    ",
"                        '.R.Q.T.uX0X[.7X                        ",
"                                                                "
};
