/* XPM */
static char *_d8274fa97a44b94ee58648eee9a7ff7miExoAuPQuGHvyGe[] = {
/* columns rows colors chars-per-pixel */
"64 64 248 2 ",
"   c None",
".  c #000000",
"X  c #0B0501",
"o  c #0E0902",
"O  c #00000B",
"+  c #0A0B0A",
"@  c #120700",
"#  c #140C01",
"$  c #190E01",
"%  c #110E0B",
"&  c #171003",
"*  c #1B1303",
"=  c #1B1609",
"-  c #000716",
";  c #191714",
":  c #240700",
">  c #221906",
",  c #2C1C02",
"<  c #261805",
"1  c #321C00",
"2  c #361800",
"3  c #221C16",
"4  c #320900",
"5  c #2D2209",
"6  c #382706",
"7  c #28221A",
"8  c #3C3315",
"9  c #3D2E13",
"0  c #081528",
"q  c #172937",
"w  c #272828",
"e  c #2F2D2F",
"r  c #422B03",
"t  c #442903",
"y  c #4C3203",
"u  c #44320C",
"i  c #4A360C",
"p  c #543A04",
"a  c #5C3C03",
"s  c #533C0E",
"d  c #563704",
"f  c #443613",
"g  c #4B3A15",
"h  c #533D13",
"j  c #623D00",
"k  c #463F34",
"l  c #401A00",
"z  c #5D4307",
"x  c #564214",
"c  c #5B4415",
"v  c #53431C",
"b  c #5E4A1C",
"n  c #5A471B",
"m  c #644203",
"M  c #6B4501",
"N  c #6C4C0D",
"B  c #674807",
"V  c #734C02",
"C  c #724F0A",
"Z  c #755301",
"A  c #7B5502",
"S  c #74520D",
"D  c #7B5A06",
"F  c #654B15",
"G  c #6B4E13",
"H  c #634C1B",
"J  c #664915",
"K  c #6D5115",
"L  c #6C531C",
"P  c #66501E",
"I  c #735414",
"U  c #7B5A15",
"Y  c #73561B",
"T  c #76591D",
"R  c #7C5D1C",
"E  c #785714",
"W  c #7D611B",
"Q  c #7E610D",
"!  c #594A24",
"~  c #484239",
"^  c #624E24",
"/  c #6B5523",
"(  c #6B5729",
")  c #745A22",
"_  c #7A5E22",
"`  c #745B26",
"'  c #705A3B",
"]  c #7D6224",
"[  c #76612B",
"{  c #7C642C",
"}  c #7A6632",
"|  c #7A6634",
" . c #313942",
".. c #39434D",
"X. c #454646",
"o. c #4E5358",
"O. c #575757",
"+. c #4B4D52",
"@. c #6A594A",
"#. c #7D684B",
"$. c #706455",
"%. c #656769",
"&. c #787878",
"*. c #72706D",
"=. c #5B6166",
"-. c #835503",
";. c #855903",
":. c #885B06",
">. c #815D15",
",. c #815E1B",
"<. c #915D03",
"1. c #896305",
"2. c #9A6808",
"3. c #8D6415",
"4. c #82621E",
"5. c #8B651B",
"6. c #8B681A",
"7. c #976B16",
"8. c #9A741A",
"9. c #A56D06",
"0. c #A97208",
"q. c #B77A08",
"w. c #A97717",
"e. c #AA7614",
"r. c #826423",
"t. c #886623",
"y. c #856926",
"u. c #8D6B25",
"i. c #82672B",
"p. c #846A2D",
"a. c #8A6D2C",
"s. c #936D26",
"d. c #8C712C",
"f. c #94722C",
"g. c #9D7A2B",
"h. c #9B7427",
"j. c #846D33",
"k. c #866B35",
"l. c #8C7234",
"z. c #85723A",
"x. c #8B753A",
"c. c #8E793D",
"v. c #937633",
"b. c #9D7C33",
"n. c #947B3C",
"m. c #9B7C3B",
"M. c #947638",
"N. c #A37D2D",
"B. c #A87B25",
"V. c #A37E33",
"C. c #BF7E29",
"Z. c #835B27",
"A. c #C17E00",
"S. c #836949",
"D. c #977D47",
"F. c #897359",
"G. c #8C7451",
"H. c #937E69",
"J. c #82776B",
"K. c #BB851A",
"L. c #B78700",
"P. c #9C803C",
"I. c #B98828",
"U. c #A8863A",
"Y. c #B58B35",
"T. c #BA923A",
"R. c #A9812A",
"E. c #C5840B",
"W. c #C9860C",
"Q. c #CC8A0D",
"!. c #C98702",
"~. c #CC8C14",
"^. c #C68918",
"/. c #CB911B",
"(. c #D2941D",
"). c #D09016",
"_. c #D08E07",
"`. c #CA9325",
"'. c #D69B27",
"]. c #C79836",
"[. c #D19C39",
"{. c #C58B28",
"}. c #DCA433",
"|. c #DBA73A",
" X c #D7A02E",
".X c #E2AC3D",
"XX c #E0AA35",
"oX c #E3A92E",
"OX c #DDA119",
"+X c #9B8342",
"@X c #988143",
"#X c #95805A",
"$X c #A48B47",
"%X c #AA8B41",
"&X c #A78945",
"*X c #AE924A",
"=X c #AF9046",
"-X c #B89849",
";X c #BA9B52",
":X c #B78C50",
">X c #9A8669",
",X c #988978",
"<X c #9D927D",
"1X c #87837F",
"2X c #AD9576",
"3X c #AB916D",
"4X c #BEA052",
"5X c #C39C45",
"6X c #C09F51",
"7X c #CBA447",
"8X c #D6AA47",
"9X c #C4A453",
"0X c #CCAA56",
"qX c #D3AE55",
"wX c #D9B358",
"eX c #DEB14A",
"rX c #E4B244",
"tX c #ECBB4C",
"yX c #E5B549",
"uX c #ECBD51",
"iX c #E6BA57",
"pX c #E1AF42",
"aX c #DEBD63",
"sX c #D1AB71",
"dX c #E2BE64",
"fX c #E0B677",
"gX c #EDC25B",
"hX c #F3C559",
"jX c #E7C365",
"kX c #F6CC66",
"lX c #FBD36A",
"zX c #FDDA74",
"xX c #EECA79",
"cX c #FFE177",
"vX c #7A7F82",
"bX c #868483",
"nX c #978C83",
"mX c #9E9284",
"MX c #9A9C9D",
"NX c #A99884",
"BX c #A08F84",
"VX c #BBA887",
"CX c #B1ADAA",
"ZX c #9B9FA2",
"AX c #CBAF8D",
"SX c #FED982",
"DX c #BEC0C2",
"FX c #D7D2CB",
/* pixels */
"                                                                                                                                ",
"                                                                                                                                ",
"                                                .X.X.X|.}.}.}.'.'.'.'.'.(.(.(.                                                  ",
"                                          tXtXrXrX].R.s.E F x s s c m S 7.w.^.(.).).                                            ",
"                                      hXtXrXT.] 1  .0 O . 5 . . . . x x . . * z 1.I.sX^.E.                                      ",
"                                  hXhX8XD.~ . O z DXCXy { [ 4.m.J l >X$.m v 6 . . - ' 9.~.Q.E.                                  ",
"                              kXkXwXz.. q vX$.1.u.2X2X8.%Xf._ x.j d k./ 5.u.l.i.r . . . y 2.~.E.                                ",
"                            kXkXU.= . + . 3 &.2XR.m Q b r 5 . . . . s x L y.u.t.J . * # . . j q.Q.W.                            ",
"                        lXzXwX( . . = . + . . %.1Xe ] } . P.jX*X: m.9X} . . . 6 6 X o . @ # . # <._.A.                          ",
"                      lXzX4X= . . . o * # . x B O.VXlX7XL %XwX=XC U.iX-Xd Y.8X( . . . X . . # . . S.{.A.                        ",
"                    zXcXU.. . X O.e . . . / yXwXQ l.NX>XD W K G r.R C U U N.8XN.p a.H . # # . % . =.@.q.W.                      ",
"                  lXcXVXo.. % . O.e 5 g.i.l.U.v.l.y.U ,X<Xf.].{ Y _ T T R I N E >.|.|.c . . @ . + . . y q.E.                    ",
"                lXcX*XO *.&.% . . . Y..XP.j.j.a.i.{ { Z F.NX;XD ) y.] W T R R E E U 8.U >.I . # . + = . y q.W.                  ",
"                zX;X. X . O.vXX.z [ P.n.c.v.{ { { d.a.} 1.+XAX>XZ y.b W 4.R R R Y E I I R.'.,.. $ . . $ . m Q.E.                ",
"              lXwX& . % % . q 2XsXP.z.P.j.} j.j.l.j.v 6 v B 6 &.J.5 z y.] 4.R ,.R U Y S V B.3.2 . . X . $ . -.Q.                ",
"            kXkX! . = . o . 6 I.2X<X@X( { } j.v.n.j.. 5 f n H p J.nX' I _ R r.R 4.,.D | S.j L 8.w.< . + . X . 9.W.              ",
"            lXU.. = . . . E c.S.U.0X<X-XP.4X*XP.z./ [ [ / P n v r @.$.B ) T R ] _ R >.p.<X>X;.5.`.:.. . . X . r E.E.            ",
"          hXqX. . X # . ;.'.m.c.aX;X9X0X;XaXP.P.l.^ f . . . . . O . . . , g L R R 4.R A I NXsXZ A U < o.w . # . -.Q.            ",
"          hXi.. * . # . s.U.x.n.z.| @XP.@X( ( ( X . . o = > = * * = > & . . . u Y T r._ ,.V >X2X' V B.F.0 . X . * q.Q.          ",
"        hX8X. % X . . J z.x.n.[ | @X$XG.| | v . . & * . . . . . . . . . # * X . # J U Z.U N.^.S.nXF.q.q.. X . $ . S ).          ",
"        hXp.. . . . :.I.l.n.| j.z.+XD.| | = . & = . . f l.-XwXaXaX9X&X/ . . # # . . x T R R Y.1.G ,XH.:.: - X . . < ^.~.        ",
"      tXeX5 . X.~ . e.B.l.j.} j.P.@X[ | + . & & . i Y.eXiXwX0X9X9XqXiXiX7X] . . # # . x Y g.s.T U M H.nXZ.: - X & X -.!.        ",
"      tXU.. . O.+.. } l.v.[ j.l.+X[ | 5 . & . . 6.|.8Xv.f . . . . . & _ T.rXI.5 . # # . c u.[.t.R T V S.AXG.X 3 . %.CX[.        ",
"      tXT . = . . 3.d.l.p.| j.P.| | v . & o . 8.}.h.. . . o * = = & . . . P [.`.r . # . o K p.t.,.T ) V s.2X%.. . vXDX5X_.      ",
"    rX8X5 . # O B A.s.l.{ i.l.n.[ [ . & # . 7.'.G . X * X . . = o . X # = . * I.{., . # . u T R 4.R Y _ D m %.vX; . . 2./.      ",
"    .X].. o X . a h.p.p.[ p.n.i.[ 8 . & . C `.C . > . . . # = . . = . . . * . . ^.w.. o o . L R t.,.R U F h.s.o.bXX.. I /.      ",
"    .XN.. * X . 8 i.a.] { l.v.[ ( . # . $ ^.7.. > . . X = . . *X! . = # . . # . y ^.C . # . u ] 4.r.R T 6 f.iX. X.+.. s '.      ",
"    XX4.. * . 1 7.u.p._ { a.a.[ v . * . :.q.. . X X * . . H =XxXqXj.. . # # . > . 7.q.. X . # ) ,.r.R Y N i.eXt . . . X /.(.    ",
"    |.G . * . j A.r.i.` i.d.i.` 5 . X . q.:.. X . . . h U.iXkXkXkXgX7XT . . . . . 6 q.m . $ . H r.r.R Y L T _ c c c m u K.'.    ",
"    }.h . # . t 7.r.r.] i.a.] / o X . y q.r . j m z 8.Y.U.[ f aX@Xx b.T.B.K y M < . 0.<.. * . x ] y.L L Y K G I I G E N I.'.    ",
"    }.u . X . . ` t._ _ a.p.] / . $ . V 0.. . 6 -.3.5.u . . . aXz.. . . 4.3.3.j . . -.9.. # . 9 r.` y.J T T Y Y R R I F I.'.    ",
"    '.6 . # . V 7._ _ _ r._ ] ^ . * . -.9.. # . . * 6 h , # X aXD.. > u 9 , . . # . V 0.. X . 9 ] ) L r.T R Y r.].].5.S K.}.    ",
"    '.6 O 3 . <.q.) R T [ L ) P . > . ;.2.. # . , u u g 8 . . aXc.. 5 g 6 u r . @ . M 0.. . . 9 / x ) P / L J Y V.N.S ' sXOX    ",
"    '.2 O.%.. s 3._ Y r.F x ) H . $ . -.9.. @ . , . : . 9 & . aXc.. 8 . . . , X X . M 0.. X . 6 a._ P L Y ) ) Z.Y.Y.t.^ 5X}.    ",
"    '.p - w . . L r.R r.J . ` L . # . M 9.. X . m R j.] W 6 . aXc.. Y R { ] S 6 . . A 9.. $ . f p.k.V.&Xm.V._ t.{.].t.I `.XX    ",
"    '.N . X  .s 9._ R T L L Y Y . X . t 0.1 . . m Y.qX5X3.# . aXc.. B Y.qX7X3.: # . <.-.. * . b v.V.qXyXyX8X/ ) V.V.` I [.XX    ",
"    '.>.O . o.nXC.A _ T 4.) T r., . # . 9.C . # . . . . . . . aXc.. . . . . . . . # 0.d . & . ` m.M.eXyXeX8Xp._ Y T W 4.}.|.    ",
"    (.8.. 3 . +.BXG.V T _ 4.Z.4.h . # . C 0.. # o # X o & . . aXc.. = # X o # # . A e.. & . & d.[ U.wXiXyXqXp.r.{ ] _ u..X      ",
"    (.K.. . . . 3 nXH.V E _ 4.r.L . X X . e.N . * . . X X . X aXn.. & . X . X . . e.z . & . v { ` M.m.m.m.M.` _ _ _ L V..X      ",
"    /.(.2 ZXZX. M 0.H.<X) A r.,.Y 9 . # . a w., . # . . o . . aXx.. > . . . * . 7.3.. # o . } | l.j.a.a.i.{ a.a.y.p.r.].rX      ",
"      (.M ZXCX. h C.-.F.mXS.V a.s.G . X # . S B.X . * o . = / jX$X6 . # o . . 5.w.. X o . v P.z.j.x.` x l.m.x H b c ` rXrX      ",
"      ~.0.. . . . a T V Z.nXH.A ].a.u . X * . I B.s . . + U.iXjXjX0Xn . . . s.8.. . X X . | P.z.l.( . @ 8X7X. . . . ] tX        ",
"      ~./.u O o X . S 4.D V ,XH.s.1._ , . X * . s g.] t >.g.P.$X&Xb.u.a J g.W . . o o . | @Xc.P.{ . . [ 8XD.. = = . T.tX        ",
"        ~.:.. # @ . 0.e.Y ,.j 3XAXS.;.) # . X # . O / J 0.R.-X9X-XY.w.-./ f . o X % . ( @Xc.P.} . . v c.! . X ; . x gXtX        ",
"        W.E., . # . M e.S >._ M %XNXH.-.Y > . o . . O 1 z K ) } [ L N y . . # o . . ( +XD.P.c.*X*X8 v.B.. . . . . U.hX          ",
"          ~.:.. $ . . . G E S t.2.C ,X<X4.R f . e O.. . O . . . . . . . # # X . . [ @Xx.c.c.| jX;Xz.{.9.. X 3 o.! gXhX          ",
"          E.^.r . X $ . 7.w.I ,.].7.V F.k.6.t.F 5 &.*.. . ; & * * & # o . . . ! D.0X@X$X*X@X*XP.z.x.,.6 . . 7 o.6XhX            ",
"            W.2.. # @ O B /.3.C ,.,.Y A U R 4.t.R z *.bXw . O . . . . . 5 ! l.d.-XqXn.dX4X9XaX#.U.p.. . X = . W lXhX            ",
"              ).V . @ . . 6 y U N U I T U ,.,.,.t.u.m #.mX$.p b H b ) { l.v.v.G.c.] c.P.} &Xz.U./.V . $ & . 8 jXkX              ",
"              E.E.y - O.; . . I.I.E >.U K R ,.,.R r.g , n 1X1XB L ^ P d.j.d.d.#X<X#XQ | c.| D.l.S . # X o . 0XkX                ",
"                W.q.9 =.3 X . >.I.U N S U K I T ,.,.R ) 4.z 2XmX( D / { d.j.a.4.z.<X>Xd.l.T.f.. . X . = . *XzX                  ",
"                  W.9.. . # . . . # B.B.E >.,.Y Y T T Y r.f.|.:XnXF.D p.p.{ { j.d.y.,X2XU.!.J . * o * . $XzXlX                  ",
"                    W.e.< . # @ $ . g.8Xs.C N S U R W L y.g.5X3.( nX>XZ ] p.a.a.j.P.K.G.&.O.. X % # . $XcXlX                    ",
"                      W.0.t . # % . . c 5 Y 7XN.U E V E 4.W R i.y.D ,X<Xy.4.j.a.j.].].< - *.*.3 . . *XcXzX                      ",
"                        W.q.j . . X % . . i 5X5Xd f.-Xf.R R Y _ ] ] Q #XBX;XrXU.. x . O X . =.q < 6XzXlX                        ",
"                          E.~.-.%.q . * # . . 5 . ] gX6X4 %XkX9Xy =XkXT.q 2X3X$ . . . & > . . D xXSX                            ",
"                            E._.:X^ . . X $ > g.y J.... . ( &X| . ^ v.^ . ;  .L g . = . . f -XkXzX                              ",
"                                !._.0.a . . t b.V.M.z.z n n 4 h 6 5 R P / 6.@X2XZ . . f U.iXhXkX                                ",
"                                    Q.).e.S t ^ { Z R.a.%Xa.f.%Xm d Z x t.t.i.k 1 / U.uXhXhX                                    ",
"                                        ~.(.^.9.V J b i n b f ^ 2 =.#.K f / T R.|.tXhXuX                                        ",
"                                            ).(.(.(./.K.w.8.7.7.&XFXAXL.[..XrXrXtX                                              ",
"                                                    `.'.}.'.'.[.'.fXdXoX.X                                                      ",
"                                                                                                                                ",
"                                                                                                                                "
};
