/* XPM */
static char *_f5bcc4b9a18450288344079726c63ba2uRCGBZx9etftWGh[] = {
/* columns rows colors chars-per-pixel */
"16 16 177 2 ",
"   c None",
".  c #130700",
"X  c #2D1D00",
"o  c #311500",
"O  c #311600",
"+  c #301B00",
"@  c #321F04",
"#  c #332407",
"$  c #3F2600",
"%  c #3B2800",
"&  c #3B2901",
"*  c #3F2A00",
"=  c #3C2906",
"-  c #412500",
";  c #422500",
":  c #432900",
">  c #422B00",
",  c #412E07",
"<  c #462F07",
"1  c #412F0D",
"2  c #493400",
"3  c #4B380A",
"4  c #553704",
"5  c #5A3901",
"6  c #5C3900",
"7  c #503908",
"8  c #56380A",
"9  c #563A0A",
"0  c #51380C",
"q  c #593F0F",
"w  c #443711",
"e  c #433414",
"r  c #473716",
"t  c #4B3716",
"y  c #4D3B13",
"u  c #4E3E1D",
"i  c #523E14",
"p  c #4D3F2A",
"a  c #533F24",
"s  c #593D25",
"d  c #5F4309",
"f  c #594317",
"g  c #5F4810",
"h  c #644103",
"j  c #654304",
"k  c #6A4403",
"l  c #68470B",
"z  c #6F520E",
"x  c #76510D",
"c  c #7D560B",
"v  c #604B16",
"b  c #714F1D",
"n  c #68511C",
"m  c #70551E",
"M  c #7A5B1F",
"N  c #584321",
"B  c #594821",
"V  c #5F4C20",
"C  c #55473F",
"Z  c #53493F",
"A  c #654D20",
"S  c #684E23",
"D  c #65492C",
"F  c #625126",
"G  c #675126",
"H  c #6E5B2B",
"J  c #745A20",
"K  c #745A21",
"L  c #735D27",
"P  c #7C5F27",
"I  c #755A28",
"U  c #735A2F",
"Y  c #7A5F2C",
"T  c #625233",
"R  c #705C35",
"E  c #795F36",
"W  c #725B39",
"Q  c #715D38",
"!  c #73602C",
"~  c #70602F",
"^  c #77612C",
"/  c #74632F",
"(  c #7A632C",
")  c #766330",
"_  c #7B6834",
"`  c #7E6B36",
"'  c #3E3A41",
"]  c #625342",
"[  c #6D5945",
"{  c #7A6046",
"}  c #7D684B",
"|  c #716154",
" . c #845F07",
".. c #8D5E0B",
"X. c #815B11",
"o. c #865913",
"O. c #805F14",
"+. c #805D18",
"@. c #82600E",
"#. c #9C6600",
"$. c #8D6615",
"%. c #876319",
"&. c #84641F",
"*. c #896218",
"=. c #9F6C1C",
"-. c #A56B00",
";. c #A36C12",
":. c #AD7C1D",
">. c #845921",
",. c #805E26",
"<. c #846421",
"1. c #846422",
"2. c #806124",
"3. c #896924",
"4. c #8C6826",
"5. c #8D6F26",
"6. c #856629",
"7. c #8D6028",
"8. c #866829",
"9. c #86692F",
"0. c #896B29",
"q. c #916E24",
"w. c #8F712B",
"e. c #95752D",
"r. c #94742E",
"t. c #876E31",
"y. c #866F35",
"u. c #886F30",
"i. c #886F31",
"p. c #80613E",
"a. c #8D7639",
"s. c #8D773C",
"d. c #917330",
"f. c #947232",
"g. c #957633",
"h. c #927737",
"j. c #9B7931",
"k. c #997C33",
"l. c #927539",
"z. c #93743A",
"x. c #957938",
"c. c #997E3B",
"v. c #AC7B22",
"b. c #A67E2F",
"n. c #826943",
"m. c #886E40",
"M. c #856A4D",
"N. c #806C4E",
"B. c #906F47",
"V. c #8C7445",
"C. c #887049",
"Z. c #927246",
"A. c #9B7F43",
"S. c #95764E",
"D. c #937B4C",
"F. c #997F4A",
"G. c #9D7A4C",
"H. c #896E51",
"J. c #B08227",
"K. c #B38429",
"L. c #A58339",
"P. c #A2843B",
"I. c #9C8545",
"U. c #9F894E",
"Y. c #998153",
"T. c #98815E",
"R. c #A58A43",
"E. c #AD924A",
"W. c #B39042",
"Q. c #B89643",
"!. c #BA9846",
"~. c #B79C4F",
"^. c #A48C55",
"/. c #AA9252",
"(. c #B79F55",
"). c #CDA84D",
"_. c #D0AB53",
/* pixels */
"              J.:.              ",
"        Q.C.T.K U M b ;.        ",
"      U.@ R Y.A.5.0.g X 7.      ",
"    I.' F.k.( } W O.4.,.. ..    ",
"  !.O d./.s.w B T 3 m G.p.+ -.  ",
"  Y S h./ , 3.y.i.<.% &.B.C H.  ",
"  q 2.t.r c 7 H F d x y @.n.[   ",
"K.9 <.L 4 h $ R.c.O k 0 n z $.  ",
"v.s O.v 9 5 f ) U f 5 < g.j.b.  ",
"  | M.( : l # ` ~ % j e W.L.q.  ",
"  { D S.E % ; P.h.% = _ / V r.  ",
"  #.: *.Z.A Z p 2 N s.E.6.a _.  ",
"    >.t  .%.I N.R i.^.l.: ~.    ",
"      o.N K 8.r.D.V.G ] (.      ",
"        =.X.f.t.m.z.w.).        ",
"                                "
};
